<svg width="200" height="71" xmlns="http://www.w3.org/2000/svg" fill-rule="evenodd" clip-rule="evenodd" stroke-linejoin="round" stroke-miterlimit="1.414"><path d="M181.265 37.44c0-16.185-10.37-28.342-16.953-34.433l-1.267 1.736c4.393 7.24 10.803 19.89 10.803 32.12 0 10.77-6.233 21.872-11.274 29.086l1.543 2.084c7.325-6.34 17.148-17.322 17.148-30.595zM199.953 37.44c0-16.185-10.372-28.342-16.956-34.433l-1.266 1.736c4.395 7.24 10.802 19.89 10.802 32.12 0 10.77-6.23 21.872-11.27 29.086l1.544 2.084c7.323-6.34 17.147-17.322 17.147-30.595z" fill="#799ea6" fill-rule="nonzero"/><path d="M14.963 47.483V6.593C5.907 13.022 0 23.582 0 35.522c0 11.94 5.907 22.502 14.963 28.932V47.483zM78.692 2.995c3.797 0 6.968.27 9.503.81C90.723 4.34 93 5.31 95.033 6.697c2.275 1.573 4.058 3.56 5.348 5.946 1.278 2.386 1.91 5.81 1.91 9.48 0 4.968-1.13 9.567-3.4 12.913-2.28 3.347-5.403 5.317-9.39 7.01l15.502 20.365 16.91-26.888s-12.638-20.777-17.064-27.028A35.423 35.423 0 0 0 81.833.046c-5.05 0-9.853 1.054-14.203 2.95h11.062z" fill="#ef8e1b" fill-rule="nonzero"/><path d="M151.126 8.47l-16.68 27.054 17.015 26.754c7.48-6.505 12.205-16.08 12.205-26.76 0-10.84-4.868-20.541-12.54-27.05z" fill="#799ea6" fill-rule="nonzero"/><path d="M128.133 27.774L142.26 2.956A35.462 35.462 0 0 0 128.133.04c-4.813 0-9.403.957-13.59 2.69l13.59 25.044zM93.463 22.524c.005-1.968-.304-3.715-.937-5.243-.63-1.533-1.684-2.826-3.14-3.872-1.22-.897-2.657-1.528-4.32-1.89-1.666-.355-3.626-.543-5.883-.552l-9.88-.038V36.89l8.38.03c2.654.01 4.967-.227 6.952-.74 1.97-.5 3.66-1.434 5.054-2.816a12.123 12.123 0 0 0 2.83-4.446c.616-1.674.93-3.798.943-6.394zM128.133 43.235l-15.315 24.303a35.438 35.438 0 0 0 15.315 3.456 35.43 35.43 0 0 0 15.662-3.624l-15.662-24.135zM81.224 44.718H69.44v24.064A35.505 35.505 0 0 0 81.833 71c5.82 0 11.312-1.397 16.16-3.874l-16.77-22.408zM61.607 6.353a35.76 35.76 0 0 0-2.925 2.258A35.423 35.423 0 0 0 35.532.048a35.454 35.454 0 0 0-14.427 3.047l11.64.043c3.794.017 6.964.295 9.497.847 2.527.55 4.804 1.525 6.83 2.92a16.87 16.87 0 0 1 5.316 5.97c1.276 2.384 1.9 5.416 1.887 9.09-.02 4.96-1.195 9.125-3.148 12.657-1.018 1.84-2.296 3.632-3.88 4.95-1.495 1.242-3.315 2.354-6.422 3.57-3.338 1.316-7.71 1.48-7.71 1.48l-11.78-.043v24.277A35.505 35.505 0 0 0 35.53 71a35.422 35.422 0 0 0 23.15-8.563 35.69 35.69 0 0 0 2.925 2.257V6.354z" fill="#ef8e1b" fill-rule="nonzero"/><path d="M43.842 33.38a12.12 12.12 0 0 0 2.832-4.447c.615-1.674.93-3.797.943-6.394.004-1.97-.304-3.715-.938-5.244-.63-1.533-1.685-2.827-3.14-3.872-1.22-.897-2.658-1.528-4.32-1.89-1.666-.356-3.627-.543-5.884-.552l-9.973-.038v25.96l8.474.032c2.653.01 4.967-.227 6.952-.74 1.97-.5 3.66-1.434 5.052-2.816z" fill="#ef8e1b" fill-rule="nonzero"/></svg>