<?xml version="1.0" encoding="UTF-8"?>
<svg width="1024px" height="1024px" viewBox="0 0 1024 1024" version="1.1" xmlns="http://www.w3.org/2000/svg" xmlns:xlink="http://www.w3.org/1999/xlink">
    <g id="Page-1" stroke="none" stroke-width="1" fill="none" fill-rule="evenodd">
        <g id="Group" transform="translate(40.000000, 40.000000)" fill-rule="nonzero">
            <path fill="#0070a1" d="M653.25,628.666667 L724.125,628.666667 C735.9375,628.666667 747.75,617 747.75,605.333333 L747.75,360.333333 C747.75,348.666667 735.9375,337 724.125,337 L653.25,337 C641.4375,337 629.625,348.666667 629.625,360.333333 L629.625,605.333333 C629.625,617 641.4375,628.666667 653.25,628.666667 Z M830.4375,628.666667 L901.3125,628.666667 C913.125,628.666667 924.9375,617 924.9375,605.333333 L924.9375,185.333333 C924.9375,173.666667 913.125,162 901.3125,162 L830.4375,162 C818.625,162 806.8125,173.666667 806.8125,185.333333 L806.8125,605.333333 C806.8125,617 818.625,628.666667 830.4375,628.666667 Z M298.875,628.666667 L369.75,628.666667 C381.5625,628.666667 393.375,617 393.375,605.333333 L393.375,477 C393.375,465.333333 381.5625,453.666667 369.75,453.666667 L298.875,453.666667 C287.0625,453.666667 275.25,465.333333 275.25,477 L275.25,605.333333 C275.25,617 287.0625,628.666667 298.875,628.666667 Z M476.0625,628.666667 L546.9375,628.666667 C558.75,628.666667 570.5625,617 570.5625,605.333333 L570.5625,243.666667 C570.5625,232 558.75,220.333333 546.9375,220.333333 L476.0625,220.333333 C464.25,220.333333 452.4375,232 452.4375,243.666667 L452.4375,605.333333 C452.4375,617 464.25,628.666667 476.0625,628.666667 Z M954.46875,745.333333 L157.125,745.333333 L157.125,191.166667 C157.125,175.052083 143.909766,162 127.59375,162 L68.53125,162 C52.2152344,162 39,175.052083 39,191.166667 L39,803.666667 C39,835.877604 65.4489258,862 98.0625,862 L954.46875,862 C970.784766,862 984,848.947917 984,832.833333 L984,774.5 C984,758.385417 970.784766,745.333333 954.46875,745.333333 Z" id="Shape"></path>
        </g>
    </g>
</svg>