<svg xmlns="http://www.w3.org/2000/svg" xmlns:xlink="http://www.w3.org/1999/xlink" version="1.1" x="0px" y="0px" viewBox="0 0 100 100" enable-background="new 0 0 100 100" xml:space="preserve">
    <path d="M66.098,33.437c-0.429-0.413-1.641-1.272-3.764-0.317l-16.49,7.417c-1.992,0.898-4.133,3.098-4.974,5.118  c-0.032,0.079-0.026,0.161-0.048,0.242c-1.527,3.729-0.753,8.177,2.305,11.156c0.978,0.949,2.107,1.682,3.333,2.17  s2.543,0.732,3.897,0.713c1.41-0.02,2.767-0.338,4.016-0.898c0.07-0.021,0.141-0.018,0.21-0.045c0.987-0.445,2.01-1.209,2.895-2.113  c0.008-0.01,0.021-0.016,0.028-0.025c0.004-0.006,0.006-0.008,0.008-0.016c0.885-0.908,1.627-1.957,2.047-2.961l6.961-16.687  C67.417,35.043,66.521,33.85,66.098,33.437z M53.112,52.824c-1.527,1.578-4.05,1.613-5.622,0.078  c-1.574-1.531-1.606-4.049-0.077-5.622c1.529-1.579,4.05-1.612,5.622-0.081C54.619,48.734,54.651,51.252,53.112,52.824z   M95.201,49.986c0,12.022-4.683,23.323-13.182,31.821c-0.505,0.506-1.165,0.756-1.828,0.756c-0.662,0-1.323-0.25-1.828-0.756  c-0.064-0.064-0.089-0.15-0.146-0.219c-0.072-0.059-0.159-0.084-0.228-0.152l-4.138-4.133c-1.01-1.012-1.01-2.648,0-3.66  c1.01-1.01,2.646-1.008,3.656-0.002l2.592,2.592c5.828-6.619,9.24-14.854,9.804-23.656h-3.666c-1.429,0-2.586-1.156-2.586-2.586  c0-1.426,1.157-2.586,2.586-2.586h3.666c-0.562-8.805-3.974-17.038-9.804-23.655l-2.588,2.587c-0.505,0.505-1.165,0.757-1.828,0.757  c-0.662,0-1.323-0.252-1.828-0.757c-1.01-1.01-1.01-2.647,0-3.656l2.588-2.587c-6.622-5.828-14.855-9.24-23.659-9.802v3.658  c0,1.428-1.158,2.585-2.586,2.585c-1.428,0-2.586-1.157-2.586-2.585v-3.658c-8.801,0.562-17.033,3.973-23.655,9.8l2.585,2.587  c1.01,1.01,1.01,2.647,0,3.656c-0.505,0.505-1.166,0.757-1.828,0.757s-1.323-0.252-1.828-0.757l-2.588-2.588  c-5.828,6.619-9.24,14.854-9.801,23.658h3.662c1.428,0,2.586,1.16,2.586,2.586c0,1.428-1.158,2.586-2.586,2.586h-3.662  c0.563,8.803,3.974,17.037,9.801,23.656l2.59-2.588c1.01-1.01,2.646-1.01,3.657,0c1.01,1.012,1.01,2.646,0,3.658l-4.135,4.133  c-0.069,0.068-0.158,0.096-0.232,0.154c-0.055,0.066-0.079,0.152-0.142,0.213c-1.01,1.01-2.646,1.01-3.656,0  C9.882,73.307,5.201,62.006,5.201,49.986c0-12.021,4.681-23.319,13.181-31.812c8.499-8.499,19.799-13.18,31.817-13.18  c0.002,0,0.002,0,0.006,0c12.02,0.001,23.318,4.684,31.812,13.185C90.519,26.667,95.201,37.963,95.201,49.986z"/>
</svg>
